<svg xmlns="http://www.w3.org/2000/svg" width="24" height="24" viewBox="0 0 24 24" fill="none" stroke="currentColor" stroke-width="1.5" stroke-linecap="round" stroke-linejoin="round">
  <!-- Bread loaf body -->
  <path d="M3 14c0 2 1 3 3 3h12c2 0 3-1 3-3v-1c0-3-3-5-9-5S3 10 3 13v1z"/>
  <!-- Top crust line / score marks -->
  <path d="M7 10c2-1.5 5-2 8-1" opacity="0.6"/>
  <path d="M8.5 12c2-1 4.5-1.5 7-.5" opacity="0.4"/>
  <!-- Base line -->
  <path d="M4 17h16"/>
  <!-- Steam -->
  <path d="M10 6c0-1 .5-1.5.5-2.5" opacity="0.5"/>
  <path d="M13 5.5c0-.8.5-1.3.5-2" opacity="0.5"/>
</svg>
