<svg xmlns="http://www.w3.org/2000/svg" width="24" height="24" viewBox="0 0 24 24" fill="none" stroke="currentColor" stroke-width="1.5" stroke-linecap="round" stroke-linejoin="round">
  <!-- Needle -->
  <path d="M18 2l-6 6"/>
  <path d="M18 2l1.5 1.5-6 6L12 8l6-6z"/>
  <!-- Needle eye -->
  <circle cx="19" cy="2.5" r="0.6" opacity="0.5"/>
  <!-- Thread spool -->
  <ellipse cx="8" cy="16" rx="5" ry="5"/>
  <ellipse cx="8" cy="16" rx="2" ry="5"/>
  <!-- Thread connecting needle to spool -->
  <path d="M12 8c-1 2-1.5 3-1 5s-.5 2.5-1 3"/>
  <!-- Thread wraps -->
  <path d="M3 14c0 1 2 2 5 2" opacity="0.4"/>
  <path d="M3 16c0 1 2 2 5 2" opacity="0.4"/>
  <path d="M3 18c0 1 2 2 5 2" opacity="0.4"/>
</svg>
